<svg width="256" height="256" viewBox="0 0 256 256" fill="none" xmlns="http://www.w3.org/2000/svg">
  <rect width="256" height="256" rx="64" fill="#064E3B"/>
  <path d="M128 56C88.2355 56 56 88.2355 56 128C56 167.764 88.2355 200 128 200C167.764 200 200 167.764 200 128C200 88.2355 167.764 56 128 56ZM128 184C97.0797 184 72 158.92 72 128C72 97.0797 97.0797 72 128 72C158.92 72 184 97.0797 184 128C184 158.92 158.92 184 128 184Z" fill="#A7F3D0"/>
  <path d="M136 88H120V136H168V120H136V88Z" fill="#A7F3D0"/>
</svg>
